<svg xmlns="http://www.w3.org/2000/svg" xmlns:xlink="http://www.w3.org/1999/xlink" viewBox="0 0 120 30"><path d="M 49.401 19.509 L 49.401 13.305 C 49.401 11.873 48.533 11.014 47.181 11.014 C 45.637 11.014 43.61 12.445 42.549 13.495 L 42.549 5 L 42.452 5 C 41.777 5.955 40.136 6.623 38.592 6.527 L 38.592 6.718 C 39.46 6.909 39.75 7.577 39.75 8.818 L 39.75 19.509 C 39.75 20.464 39.364 21.132 38.592 21.418 L 38.592 21.609 L 43.707 21.609 L 43.707 21.418 C 42.935 21.036 42.549 20.368 42.549 19.509 L 42.549 13.973 C 43.707 13.114 44.672 12.636 45.348 12.636 C 46.12 12.636 46.506 13.209 46.506 14.259 L 46.506 19.509 C 46.506 20.368 46.12 20.941 45.348 21.418 L 45.348 21.609 L 50.463 21.609 L 50.463 21.418 C 49.787 21.132 49.401 20.464 49.401 19.509 Z M 35.214 5.764 C 33.766 5.764 32.222 6.909 30.967 9.486 L 29.327 5.668 L 29.23 5.668 C 28.941 6.241 28.169 6.623 27.397 6.623 L 19 6.623 L 19 6.814 C 19.676 7.1 20.255 8.055 20.834 9.391 L 26.045 21.895 L 26.238 21.895 L 29.616 13.686 L 32.994 21.8 L 33.187 21.8 L 36.083 14.641 C 36.276 14.164 36.372 13.782 36.565 13.4 C 37.434 11.3 37.916 10.059 37.916 8.818 C 37.916 7.1 36.951 5.764 35.214 5.764 Z M 27.397 17.505 L 24.019 9.295 C 23.44 7.959 24.019 7.005 25.37 7.005 C 26.624 7.005 27.203 7.768 27.783 9.295 L 29.327 12.923 Z M 35.503 14.45 L 34.345 17.409 L 31.16 9.964 C 31.933 8.818 32.898 8.436 34.056 8.436 C 35.407 8.436 36.276 9.391 36.276 11.014 C 36.276 11.968 36.083 13.114 35.503 14.45 Z M 79.513 13.877 C 79.513 12.255 77.776 11.014 75.652 11.014 C 72.371 11.014 70.055 13.877 70.055 16.836 C 70.055 20.082 72.564 21.991 74.977 21.991 C 77.003 21.991 78.837 20.845 79.513 18.745 L 79.416 18.65 C 78.741 19.605 77.583 20.177 76.424 20.177 C 74.88 20.177 73.626 19.318 73.047 17.791 C 76.135 17.123 79.513 16.264 79.513 13.877 Z M 72.853 17.123 C 72.757 16.645 72.66 16.073 72.66 15.595 C 72.66 13.018 73.819 11.491 75.17 11.491 C 76.231 11.491 76.617 12.445 76.617 13.4 C 76.617 15.405 74.784 16.741 72.853 17.123 Z M 96.113 13.782 C 96.981 11.968 98.333 10.727 99.684 10.727 C 101.035 10.727 101.71 11.777 101.71 13.018 C 101.71 14.355 101.228 15.214 100.359 16.836 C 100.263 17.027 100.07 17.314 99.973 17.505 L 97.174 22.659 C 96.113 24.664 95.051 25.905 93.507 25.905 C 92.445 25.905 91.384 25.332 91.384 24.377 C 91.384 23.518 91.963 23.041 92.735 23.041 C 93.41 23.041 93.7 23.423 93.99 23.805 C 94.279 24.186 94.569 24.473 95.051 24.473 C 95.63 24.473 96.113 23.9 96.885 22.373 L 97.174 21.895 L 93.603 14.545 L 93.314 14.45 C 92.831 13.4 92.445 12.732 91.577 12.541 L 91.577 12.35 C 92.928 12.35 94.183 11.777 94.472 10.823 L 94.665 10.823 Z M 98.622 18.936 L 99.491 17.218 C 100.07 16.168 100.263 15.214 100.263 14.45 C 100.263 13.4 99.684 12.732 98.622 12.732 C 97.464 12.732 96.692 13.4 96.209 14.164 Z M 83.952 12.827 C 84.724 11.968 86.172 10.918 87.62 10.918 C 89.647 10.918 91.48 12.923 91.48 15.786 C 91.48 18.936 89.164 21.8 85.786 21.8 C 84.435 21.8 83.277 21.227 82.698 20.273 L 81.347 21.8 L 81.153 21.8 L 81.153 8.818 C 81.153 7.673 80.767 7.005 79.899 6.718 L 79.899 6.527 C 81.443 6.527 83.084 5.955 83.856 5 L 83.952 5 Z M 83.952 19.318 C 83.952 20.464 84.628 21.227 85.593 21.227 C 87.33 21.227 88.488 19.127 88.488 16.359 C 88.488 13.877 87.62 12.35 86.172 12.35 C 85.303 12.35 84.531 12.827 83.856 13.495 L 83.856 19.318 Z M 68.414 11.014 C 67.256 11.014 66.098 12.159 65.519 13.305 L 65.519 10.823 L 65.326 10.823 C 64.65 11.777 63.009 12.35 61.465 12.35 L 61.465 12.541 C 62.334 12.827 62.72 13.495 62.72 14.641 L 62.72 19.414 C 62.72 20.368 62.334 21.036 61.465 21.418 L 61.465 21.609 L 66.773 21.609 L 66.773 21.418 C 65.905 21.036 65.615 20.368 65.615 19.414 L 65.615 13.782 C 65.905 13.4 66.291 13.018 66.677 13.018 C 67.063 13.018 67.256 13.209 67.545 13.4 C 67.835 13.591 68.124 13.877 68.703 13.877 C 69.379 13.877 70.055 13.4 70.055 12.445 C 69.958 11.586 69.283 11.014 68.414 11.014 Z M 56.64 11.014 C 58.859 11.014 60.5 12.255 60.5 13.877 C 60.5 16.359 57.122 17.218 53.937 17.695 C 54.516 19.223 55.771 20.082 57.315 20.082 C 58.473 20.082 59.631 19.509 60.307 18.555 L 60.403 18.65 C 59.824 20.75 57.894 21.895 55.867 21.895 C 53.358 21.895 50.945 19.986 50.945 16.741 C 51.138 13.782 53.358 11.014 56.64 11.014 Z M 53.744 15.595 C 53.744 16.168 53.841 16.645 53.937 17.123 C 55.867 16.741 57.701 15.405 57.701 13.305 C 57.701 12.35 57.315 11.395 56.253 11.395 C 54.806 11.491 53.744 13.018 53.744 15.595 Z" fill="rgb(255,255,255)"></path></svg>