<svg xmlns="http://www.w3.org/2000/svg" xmlns:xlink="http://www.w3.org/1999/xlink" viewBox="0 0 120 30"><path d="M 26.921 5.513 C 30.269 8.207 33.113 11.478 35.32 15.172 L 37.524 13.045 C 38.577 12.041 39.82 11.257 41.178 10.741 C 40.561 8.695 39.719 6.997 38.339 5.315 C 38.257 5.214 38.152 5.134 38.034 5.081 C 37.914 5.028 37.785 5 37.654 5 L 27.112 5 C 27.051 5 26.992 5.018 26.941 5.053 C 26.892 5.088 26.853 5.137 26.831 5.194 C 26.808 5.249 26.805 5.311 26.822 5.368 C 26.838 5.424 26.874 5.477 26.921 5.513 Z M 33.164 18.527 C 34.778 19.198 36.424 19.796 38.117 20.241 C 41.139 21.037 44.003 19.893 45.42 17.254 L 47.132 13.918 C 47.515 13.104 48.003 12.344 48.585 11.658 C 46.919 11.063 45.121 10.94 43.39 11.303 C 41.668 11.661 40.08 12.496 38.805 13.712 L 36.186 16.239 C 35.264 17.132 34.26 17.844 33.164 18.527 Z M 22.506 12.006 C 22.419 11.925 22.292 11.903 22.182 11.95 C 22.074 11.994 22.003 12.099 22 12.216 L 22 22.287 C 22 22.424 22.036 22.562 22.103 22.687 C 22.17 22.808 22.269 22.913 22.383 22.994 C 25.082 24.741 27.4 25.695 30.636 25.739 C 33.865 25.787 37.043 24.922 39.806 23.245 C 40.819 22.63 41.017 22.368 41.863 21.567 C 40.308 21.979 38.885 21.862 37.373 21.466 C 31.016 19.784 27.143 16.384 22.506 12.006 Z M 75.323 12.742 C 74.528 12.078 73.385 11.747 71.897 11.747 C 70.41 11.747 68.918 12.059 67.408 13.336 C 67.372 13.366 67.35 13.41 67.348 13.457 C 67.346 13.503 67.363 13.549 67.395 13.583 L 68.76 14.977 C 68.813 15.033 68.897 15.043 68.962 15.002 C 70.145 14.274 70.92 14.043 71.779 14.043 C 72.93 14.043 73.507 14.617 73.507 15.77 L 73.507 16.267 L 71.581 16.327 C 69.919 16.388 68.677 16.703 67.85 17.277 C 67.028 17.848 66.612 18.737 66.612 19.942 C 66.612 21.146 66.917 21.979 67.53 22.602 C 68.143 23.225 68.982 23.536 70.05 23.536 C 70.916 23.536 71.62 23.411 72.162 23.156 C 72.622 22.942 73.072 22.578 73.507 22.068 L 73.507 23.164 C 73.507 23.257 73.582 23.334 73.674 23.334 L 76.356 23.334 C 76.447 23.334 76.522 23.257 76.522 23.164 L 76.522 15.77 C 76.522 14.416 76.126 13.409 75.331 12.746 Z M 72.875 20.649 C 72.455 21.062 71.894 21.268 71.189 21.268 C 70.208 21.268 69.718 20.831 69.718 19.958 C 69.718 19.347 69.931 18.895 70.362 18.6 C 70.793 18.301 71.45 18.139 72.329 18.11 L 73.499 18.07 L 73.499 19.004 C 73.499 19.687 73.29 20.237 72.87 20.649 Z M 97.888 23.063 L 94.166 17.634 L 94.166 17.625 L 97.69 12.192 C 97.724 12.14 97.726 12.074 97.697 12.019 C 97.669 11.964 97.613 11.93 97.552 11.929 L 94.438 11.929 C 94.272 11.93 94.117 12.015 94.027 12.155 L 90.957 16.885 L 90.957 7.648 C 90.957 7.555 90.884 7.48 90.791 7.478 L 88.101 7.478 C 88.009 7.48 87.935 7.555 87.935 7.648 L 87.935 23.159 C 87.935 23.252 88.01 23.329 88.101 23.329 L 90.791 23.329 C 90.882 23.329 90.957 23.252 90.957 23.159 L 90.957 18.333 L 94.233 23.115 C 94.326 23.249 94.478 23.33 94.641 23.329 L 97.754 23.329 C 97.817 23.329 97.874 23.294 97.902 23.237 C 97.931 23.181 97.925 23.114 97.888 23.063 Z M 64.812 23.329 L 55.642 23.329 C 55.457 23.328 55.279 23.253 55.149 23.12 C 55.019 22.987 54.948 22.808 54.95 22.622 L 54.95 7.656 C 54.95 7.559 55.029 7.478 55.123 7.478 L 57.834 7.478 C 57.928 7.478 58.008 7.559 58.008 7.656 L 58.008 20.209 L 64.816 20.209 C 64.911 20.209 64.99 20.289 64.99 20.387 L 64.99 23.156 C 64.99 23.253 64.912 23.332 64.816 23.334 Z M 86.246 11.905 C 83.963 11.456 82.44 12.253 81.507 13.542 L 81.507 12.139 C 81.507 12.047 81.433 11.971 81.341 11.97 L 78.658 11.97 C 78.566 11.971 78.492 12.047 78.492 12.139 L 78.492 23.164 C 78.492 23.257 78.567 23.334 78.658 23.334 L 81.341 23.334 C 81.431 23.334 81.507 23.257 81.507 23.164 L 81.507 17.132 C 81.507 16.91 81.53 16.687 81.59 16.473 C 82.088 14.654 84.359 14.254 86.182 14.622 C 86.231 14.631 86.282 14.617 86.32 14.585 C 86.359 14.553 86.381 14.506 86.38 14.456 L 86.38 12.071 C 86.381 11.992 86.327 11.923 86.25 11.905 Z" fill="rgb(255,255,255)"></path></svg>