<svg xmlns="http://www.w3.org/2000/svg" xmlns:xlink="http://www.w3.org/1999/xlink" viewBox="0 0 120 30"><path d="M 42.667 8.465 C 41.788 8.465 41.009 8.93 40.534 9.648 L 37.31 14.511 C 37.194 14.693 36.993 14.804 36.777 14.806 C 36.415 14.806 36.121 14.491 36.121 14.101 C 36.121 13.956 36.161 13.82 36.23 13.709 L 38.953 9.325 C 39.49 8.447 39.539 7.356 39.084 6.433 C 38.629 5.517 37.742 4.946 36.777 4.946 L 22.38 4.946 L 22.38 7.762 L 34.816 7.762 C 34.816 8.539 34.229 9.17 33.507 9.17 L 22.38 9.17 C 22.38 10.172 22.574 11.124 22.927 11.987 L 32.198 11.987 C 32.198 12.763 31.611 13.395 30.89 13.395 L 23.688 13.395 C 24.882 15.105 26.784 16.212 28.926 16.212 L 32.851 16.212 C 33.213 16.212 33.507 16.528 33.507 16.917 C 33.507 17.307 33.213 17.623 32.851 17.623 L 28.926 17.623 L 24.553 24.667 L 33.181 24.667 C 36.803 24.667 39.878 22.131 40.952 18.621 L 42.427 13.811 C 42.887 12.288 43.748 10.917 44.921 9.842 C 44.46 9.016 43.624 8.465 42.667 8.465 Z M 42.667 10.403 C 42.397 10.403 42.178 10.167 42.178 9.876 C 42.178 9.585 42.397 9.349 42.667 9.349 C 42.939 9.349 43.157 9.586 43.157 9.876 C 43.16 10.166 42.939 10.403 42.667 10.403 Z M 61.363 17.752 C 61.892 18.483 62.156 19.318 62.156 20.258 C 62.156 21.613 61.715 22.686 60.836 23.478 C 59.957 24.27 58.728 24.667 57.156 24.667 L 50.141 24.667 L 50.141 8.459 L 56.921 8.459 C 58.451 8.459 59.65 8.835 60.515 9.59 C 61.38 10.344 61.812 11.368 61.812 12.662 C 61.812 13.617 61.58 14.409 61.116 15.041 C 60.657 15.669 60.006 16.131 59.261 16.356 C 60.131 16.554 60.833 17.019 61.363 17.752 Z M 53.809 15.016 L 56.211 15.016 C 56.813 15.016 57.274 14.874 57.594 14.588 C 57.915 14.304 58.078 13.882 58.078 13.33 C 58.078 12.776 57.918 12.354 57.594 12.061 C 57.274 11.768 56.813 11.623 56.211 11.623 L 53.809 11.623 Z M 57.941 21.028 C 58.276 20.729 58.445 20.295 58.445 19.725 C 58.445 19.154 58.27 18.708 57.918 18.384 C 57.569 18.061 57.085 17.9 56.469 17.9 L 53.809 17.9 L 53.809 21.478 L 56.512 21.478 C 57.128 21.481 57.603 21.33 57.941 21.028 Z M 67.949 8.459 L 67.949 24.667 L 64.281 24.667 L 64.281 8.459 Z M 78.291 24.667 L 75.159 18.547 L 74.28 18.547 L 74.28 24.667 L 70.609 24.667 L 70.609 8.459 L 76.765 8.459 C 77.953 8.459 78.964 8.68 79.8 9.127 C 80.636 9.574 81.264 10.187 81.679 10.964 C 82.094 11.74 82.3 12.606 82.3 13.562 C 82.3 14.64 82.017 15.601 81.453 16.449 C 80.888 17.296 80.055 17.897 78.953 18.248 L 82.429 24.667 Z M 74.277 15.752 L 76.55 15.752 C 77.223 15.752 77.727 15.577 78.062 15.222 C 78.397 14.868 78.566 14.369 78.566 13.722 C 78.566 13.105 78.397 12.622 78.062 12.267 C 77.727 11.913 77.223 11.737 76.55 11.737 L 74.277 11.737 Z M 94.404 9.472 C 95.579 10.137 96.536 11.127 97.161 12.323 C 97.811 13.546 98.138 14.957 98.138 16.56 C 98.138 18.147 97.811 19.555 97.161 20.785 C 96.537 21.989 95.575 22.984 94.392 23.647 C 93.198 24.325 91.815 24.664 90.24 24.664 L 84.597 24.664 L 84.597 8.456 L 90.24 8.456 C 91.83 8.459 93.216 8.798 94.404 9.472 Z M 93.244 20.026 C 94.017 19.21 94.404 18.057 94.404 16.563 C 94.404 15.071 94.017 13.907 93.244 13.078 C 92.471 12.246 91.392 11.83 90.006 11.83 L 88.268 11.83 L 88.268 21.25 L 90.006 21.25 C 91.392 21.25 92.471 20.84 93.244 20.026 Z" fill="rgb(255,255,255)"></path></svg>