<svg xmlns="http://www.w3.org/2000/svg" xmlns:xlink="http://www.w3.org/1999/xlink" viewBox="0 0 162 17"><path d="M 37.641 10.37 L 28.516 10.37 L 28.516 8.126 L 40.283 8.126 C 39.974 7.174 38.979 6.29 37.23 6.29 L 28.687 6.29 C 26.732 6.29 25.6 7.004 25.6 8.568 L 25.6 10.234 C 25.6 11.594 26.766 12.376 28.482 12.376 L 37.71 12.376 L 37.71 14.756 L 25.291 14.756 C 25.6 16.048 26.595 16.728 28.379 16.728 L 37.675 16.728 C 39.631 16.728 40.591 15.98 40.591 14.382 L 40.591 12.716 C 40.591 11.254 39.459 10.472 37.641 10.37 Z" fill="rgb(255, 255, 255)"></path><path d="M 56.269 6.324 L 45.017 6.324 L 45.017 16.762 L 48.207 16.762 L 48.207 12.75 L 56.509 12.75 C 58.808 12.75 60.077 11.968 60.077 10.132 L 60.077 8.976 C 60.043 7.276 58.602 6.324 56.269 6.324 Z M 57.298 9.656 C 57.298 10.404 57.161 10.812 55.926 10.812 L 48.207 10.812 L 48.242 8.092 L 55.789 8.092 C 57.161 8.092 57.333 8.5 57.333 9.214 L 57.333 9.656 Z" fill="rgb(255, 255, 255)"></path><path d="M 69.34 5.882 L 67.419 8.228 L 70.678 12.682 L 63.885 12.682 L 62.204 14.45 L 72.016 14.45 L 73.697 16.762 L 77.47 16.762 Z" fill="rgb(255, 255, 255)"></path><path d="M 83.577 8.126 L 95.515 8.126 C 95.206 6.902 94.006 6.29 92.29 6.29 L 83.371 6.29 C 81.827 6.29 80.352 6.902 80.352 8.568 L 80.352 14.416 C 80.352 16.082 81.827 16.694 83.371 16.694 L 92.393 16.694 C 94.452 16.694 95.172 16.116 95.515 14.722 L 83.577 14.722 Z" fill="rgb(255, 255, 255)"></path><path d="M 103.097 14.79 L 103.097 11.594 L 109.512 11.594 L 109.512 9.826 L 99.872 9.826 L 99.872 16.762 L 114.109 16.762 L 114.109 14.79 Z M 100.215 6.324 L 114.589 6.324 L 114.589 8.16 L 100.215 8.16 Z" fill="rgb(255, 255, 255)"></path><path d="M 123.44 6.324 L 118.432 6.324 L 124.332 10.608 C 125.19 10.03 126.185 9.418 127.077 8.908 Z M 130.713 11.662 C 129.855 12.24 128.998 12.886 128.174 13.498 L 132.634 16.728 L 137.677 16.728 Z" fill="rgb(255, 255, 255)"></path><path d="M 161.657 0.238 C 134.212 1.802 121.519 13.43 118.672 16.184 L 118.088 16.728 L 123.166 16.728 C 136.888 3.094 156.614 0.68 161.657 0.238 Z" fill="rgb(255, 255, 255)"></path></svg>