<svg xmlns="http://www.w3.org/2000/svg" xmlns:xlink="http://www.w3.org/1999/xlink" viewBox="0 0 120 30"><path d="M 8.578 3.476 L 15.234 9.773 L 15.234 3.491 L 16.529 3.491 L 16.529 9.801 L 23.215 3.476 L 23.215 10.655 L 25.961 10.655 L 25.961 21.01 L 23.224 21.01 L 23.224 27.403 L 16.529 21.364 L 16.529 27.472 L 15.234 27.472 L 15.234 21.464 L 8.585 27.476 L 8.585 21.01 L 5.84 21.01 L 5.84 10.655 L 8.578 10.655 Z M 14.257 11.969 L 7.136 11.969 L 7.136 19.696 L 8.583 19.696 L 8.583 17.259 Z M 9.881 17.842 L 9.881 24.544 L 15.234 19.703 L 15.234 12.85 Z M 16.567 19.639 L 16.567 12.843 L 21.921 17.836 L 21.921 21.01 L 21.928 21.01 L 21.928 24.475 Z M 23.224 19.696 L 24.665 19.696 L 24.665 11.969 L 17.597 11.969 L 23.224 17.204 Z M 21.92 10.655 L 21.92 6.499 L 17.526 10.655 Z M 14.267 10.655 L 9.873 10.655 L 9.873 6.499 Z M 57.973 10.498 L 58.796 10.498 L 58.796 12.238 L 57.731 12.238 C 56.896 12.238 56.274 12.444 55.861 12.858 C 55.451 13.27 55.245 13.948 55.245 14.89 L 55.245 20.598 L 53.564 20.598 L 53.564 10.537 L 55.245 10.537 L 55.245 12.143 C 55.245 12.233 55.289 12.278 55.376 12.278 C 55.425 12.278 55.462 12.265 55.488 12.239 C 55.515 12.213 55.537 12.162 55.564 12.084 C 55.888 11.028 56.692 10.499 57.974 10.499 L 57.973 10.499 Z M 69.156 12.654 C 69.598 13.46 69.82 14.431 69.82 15.566 C 69.82 16.7 69.599 17.671 69.156 18.477 C 68.714 19.283 68.141 19.886 67.437 20.286 C 66.733 20.686 65.976 20.886 65.167 20.886 C 63.572 20.886 62.451 20.228 61.803 18.912 C 61.754 18.809 61.69 18.756 61.616 18.756 C 61.542 18.756 61.503 18.795 61.503 18.873 L 61.503 24.271 L 59.822 24.271 L 59.822 10.536 L 61.503 10.536 L 61.503 12.258 C 61.503 12.335 61.541 12.375 61.616 12.375 C 61.692 12.375 61.753 12.324 61.803 12.22 C 62.451 10.903 63.572 10.245 65.167 10.245 C 65.976 10.245 66.733 10.445 67.437 10.845 C 68.141 11.245 68.713 11.848 69.156 12.654 Z M 68.14 15.566 C 68.14 14.379 67.831 13.454 67.215 12.789 C 66.599 12.125 65.787 11.794 64.776 11.794 C 63.765 11.794 62.953 12.126 62.337 12.789 C 61.719 13.454 61.494 14.38 61.494 15.566 C 61.494 16.751 61.72 17.677 62.337 18.342 C 62.953 19.007 63.766 19.337 64.776 19.337 C 65.786 19.337 66.599 19.005 67.215 18.342 C 67.831 17.679 68.14 16.751 68.14 15.566 Z M 40.842 12.669 C 41.283 13.475 41.505 14.446 41.505 15.58 C 41.505 16.715 41.284 17.686 40.842 18.492 C 40.399 19.298 39.826 19.901 39.122 20.301 C 38.418 20.701 37.661 20.901 36.852 20.901 C 35.257 20.901 34.136 20.243 33.488 18.926 C 33.439 18.823 33.376 18.771 33.301 18.771 C 33.227 18.771 33.189 18.81 33.189 18.888 L 33.189 24.286 L 31.508 24.286 L 31.508 10.551 L 33.19 10.551 L 33.19 12.273 C 33.19 12.35 33.227 12.39 33.302 12.39 C 33.378 12.39 33.439 12.339 33.49 12.234 C 34.137 10.918 35.258 10.26 36.853 10.26 C 37.663 10.26 38.419 10.46 39.123 10.86 C 39.827 11.26 40.399 11.863 40.843 12.669 Z M 39.824 15.58 C 39.824 14.394 39.515 13.469 38.899 12.804 C 38.283 12.141 37.47 11.809 36.46 11.809 C 35.45 11.809 34.637 12.141 34.021 12.804 C 33.404 13.47 33.178 14.395 33.178 15.58 C 33.178 16.766 33.404 17.692 34.021 18.357 C 34.637 19.022 35.449 19.352 36.46 19.352 C 37.471 19.352 38.283 19.02 38.899 18.357 C 39.515 17.694 39.824 16.766 39.824 15.58 Z M 50.592 17.402 L 52.367 17.402 C 52.131 18.344 51.647 19.16 50.919 19.849 C 50.19 20.539 49.147 20.883 47.788 20.883 C 46.767 20.883 45.867 20.667 45.089 20.235 C 44.311 19.803 43.71 19.188 43.286 18.388 C 42.861 17.588 42.65 16.647 42.65 15.563 C 42.65 14.479 42.856 13.538 43.266 12.738 C 43.676 11.939 44.253 11.323 44.994 10.891 C 45.735 10.459 46.604 10.243 47.6 10.243 C 48.597 10.243 49.423 10.457 50.114 10.881 C 50.806 11.307 51.321 11.872 51.664 12.573 C 52.007 13.277 52.177 14.047 52.177 14.885 L 52.177 16.046 L 44.424 16.046 C 44.485 17.052 44.813 17.853 45.404 18.445 C 45.996 19.038 46.791 19.335 47.787 19.335 C 48.597 19.335 49.218 19.165 49.647 18.822 C 50.076 18.48 50.391 18.006 50.591 17.399 Z M 44.389 14.597 L 50.256 14.597 C 50.256 13.721 50.038 13.033 49.602 12.536 C 49.165 12.041 48.48 11.791 47.546 11.791 C 46.674 11.791 45.961 12.033 45.407 12.518 C 44.853 13.001 44.514 13.695 44.389 14.597 Z M 71.176 20.595 L 72.858 20.595 L 72.858 6.666 L 71.176 6.666 L 71.176 20.596 Z M 94.821 9.437 L 96.786 9.437 L 96.786 7.26 L 94.821 7.26 Z M 102.075 19.097 C 101.769 19.129 101.584 19.145 101.524 19.145 C 101.437 19.145 101.366 19.119 101.317 19.067 C 101.268 19.016 101.242 18.945 101.242 18.853 C 101.242 18.79 101.258 18.599 101.29 18.282 C 101.319 17.967 101.336 17.479 101.336 16.822 L 101.336 12.008 L 103.735 12.008 L 103.262 10.535 L 101.337 10.535 L 101.337 7.826 L 99.657 7.826 L 99.657 10.534 L 97.827 10.534 L 97.827 12.007 L 99.657 12.007 L 99.657 17.304 C 99.657 18.414 99.919 19.239 100.441 19.781 C 100.964 20.322 101.762 20.594 102.834 20.594 L 104.142 20.594 L 104.142 19.047 L 103.488 19.047 C 102.852 19.047 102.382 19.063 102.076 19.095 Z M 112.238 10.535 L 109.453 18.976 C 109.416 19.08 109.357 19.216 109.167 19.216 C 108.976 19.216 108.916 19.08 108.879 18.976 L 106.094 10.535 L 104.38 10.535 L 107.604 20.595 L 108.745 20.595 C 108.819 20.595 108.876 20.603 108.914 20.615 C 108.951 20.627 108.982 20.66 109.007 20.712 C 109.056 20.789 109.05 20.905 108.988 21.06 L 108.465 22.53 C 108.39 22.723 108.247 22.82 108.036 22.82 C 107.961 22.82 107.787 22.804 107.513 22.772 C 107.239 22.739 106.885 22.723 106.449 22.723 L 105.084 22.723 L 105.084 24.27 L 106.878 24.27 C 107.924 24.27 108.554 24.086 109.096 23.719 C 109.638 23.351 110.058 22.703 110.357 21.775 L 113.84 10.921 L 113.84 10.535 Z M 89.13 14.288 L 86.495 10.535 L 84.645 10.535 L 84.645 10.921 L 87.802 15.274 L 83.953 20.208 L 83.953 20.594 L 85.841 20.594 L 88.905 16.55 L 91.764 20.594 L 93.577 20.594 L 93.577 20.208 L 90.232 15.564 L 93.859 10.941 L 93.859 10.535 L 91.971 10.535 L 89.131 14.288 Z M 95 20.595 L 96.682 20.595 L 96.682 10.536 L 95 10.536 L 95 20.596 Z M 83.93 17.402 C 83.692 18.344 83.211 19.16 82.483 19.849 C 81.754 20.539 80.711 20.883 79.352 20.883 C 78.33 20.883 77.431 20.667 76.652 20.235 C 75.873 19.803 75.274 19.188 74.849 18.388 C 74.426 17.588 74.215 16.647 74.215 15.563 C 74.215 14.479 74.421 13.538 74.831 12.738 C 75.243 11.939 75.818 11.323 76.559 10.891 C 77.3 10.459 78.168 10.243 79.166 10.243 C 80.164 10.243 80.989 10.457 81.68 10.881 C 82.371 11.307 82.888 11.872 83.231 12.573 C 83.574 13.277 83.744 14.047 83.744 14.885 L 83.744 16.046 L 75.99 16.046 C 76.052 17.052 76.379 17.853 76.971 18.445 C 77.562 19.038 78.357 19.335 79.353 19.335 C 80.163 19.335 80.784 19.165 81.213 18.822 C 81.642 18.48 81.956 18.006 82.155 17.399 L 83.931 17.399 Z M 75.994 14.597 L 81.862 14.597 C 81.862 13.721 81.643 13.033 81.208 12.536 C 80.771 12.041 80.087 11.791 79.153 11.791 C 78.281 11.791 77.568 12.033 77.013 12.518 C 76.459 13.001 76.119 13.695 75.996 14.597 Z" fill="rgb(255,255,255)"></path></svg>