<svg xmlns="http://www.w3.org/2000/svg" xmlns:xlink="http://www.w3.org/1999/xlink" viewBox="0 0 120 30"><path d="M 97.826 17.494 C 97.902 17.402 98.016 17.351 98.134 17.355 C 98.253 17.359 98.362 17.418 98.432 17.515 L 98.431 17.515 L 99.001 18.297 C 99.11 18.448 99.107 18.653 98.995 18.801 C 98.006 20.089 96.273 21.33 94.182 21.449 C 92.531 21.544 91.17 20.915 90.429 19.729 C 90.363 19.618 90.246 19.549 90.119 19.543 C 89.991 19.538 89.869 19.598 89.794 19.702 C 88.915 20.887 87.851 21.814 86.743 21.877 C 84.769 21.991 84.211 20.661 84.699 17.73 C 84.748 17.438 84.493 17.191 84.219 17.265 C 83.801 17.378 83.366 17.419 82.934 17.384 C 82.749 17.366 82.578 17.483 82.523 17.662 C 81.793 20.071 80.054 22.312 77.804 22.442 C 76.367 22.525 74.221 21.698 74.436 18.246 C 74.454 17.965 74.203 17.744 73.944 17.823 C 73.482 17.967 72.997 18.021 72.514 17.983 C 72.329 17.966 72.158 18.083 72.104 18.262 C 71.374 20.671 69.635 22.912 67.385 23.042 C 65.948 23.124 63.802 22.298 64.017 18.846 C 64.035 18.564 63.784 18.343 63.525 18.422 C 63.063 18.567 62.578 18.621 62.095 18.582 C 61.911 18.565 61.74 18.682 61.686 18.861 C 60.955 21.27 59.217 23.511 56.966 23.641 C 55.944 23.7 54.562 23.298 53.927 21.818 C 53.875 21.686 53.755 21.593 53.616 21.577 C 53.476 21.56 53.338 21.622 53.257 21.738 C 52.368 22.955 51.286 23.916 50.155 23.981 C 48.997 24.048 48.363 23.581 48.088 22.749 C 48.045 22.614 47.933 22.513 47.796 22.487 C 47.658 22.46 47.517 22.51 47.426 22.618 C 46.636 23.551 45.735 24.236 44.824 24.288 C 43.419 24.369 42.61 23.323 42.544 22.057 C 42.467 20.579 43.103 18.85 43.814 16.961 C 43.912 16.698 43.734 16.414 43.464 16.403 C 43.022 16.386 42.581 16.338 42.146 16.26 C 41.945 16.222 41.75 16.348 41.698 16.547 C 40.858 19.56 39.57 22.514 38.484 24.26 C 38.429 24.353 38.337 24.418 38.231 24.44 C 38.126 24.461 38.016 24.437 37.929 24.373 L 37.1 23.76 C 36.929 23.63 36.884 23.389 36.998 23.206 C 38.567 20.682 39.961 16.73 40.441 13.807 C 40.469 13.623 40.62 13.483 40.804 13.471 L 41.907 13.407 C 42.16 13.392 42.359 13.629 42.313 13.89 L 42.308 13.917 C 42.288 14.026 42.311 14.139 42.375 14.23 C 42.438 14.32 42.535 14.381 42.644 14.397 C 43.634 14.534 45.112 14.551 46.115 14.511 C 46.397 14.501 46.596 14.793 46.493 15.068 C 45.689 17.218 44.611 20.196 44.673 21.375 C 44.701 21.908 44.934 22.199 45.347 22.175 C 46.134 22.13 47.347 20.539 48.265 18.768 C 48.282 18.736 48.295 18.702 48.302 18.667 C 48.612 17.28 49.071 15.733 49.535 14.17 L 49.564 14.073 C 49.61 13.912 49.75 13.797 49.916 13.786 L 51.237 13.711 C 51.51 13.695 51.714 13.971 51.631 14.242 L 51.428 14.91 C 50.265 18.736 49.29 21.949 50.604 21.873 C 51.463 21.824 52.681 20.36 53.729 18.277 C 53.746 18.242 53.758 18.205 53.765 18.167 C 53.818 17.895 53.882 17.61 53.96 17.313 C 54.571 14.864 55.263 12.438 55.957 10.008 C 56.171 9.259 56.385 8.508 56.596 7.758 C 56.641 7.594 56.783 7.477 56.95 7.465 L 58.306 7.388 C 58.582 7.372 58.786 7.65 58.699 7.924 C 58.143 9.678 57.594 11.435 57.054 13.195 C 56.941 13.564 57.334 13.87 57.645 13.657 C 58.179 13.29 58.798 13.047 59.397 13.013 C 60.923 12.925 61.962 14.185 62.061 16.084 C 62.067 16.185 62.073 16.293 62.076 16.403 C 62.082 16.613 62.239 16.783 62.439 16.8 C 63.173 16.872 63.904 16.634 64.459 16.142 C 64.517 16.089 64.558 16.02 64.576 15.943 C 65.138 13.751 65.759 11.575 66.38 9.397 C 66.593 8.651 66.806 7.905 67.017 7.158 C 67.06 6.994 67.202 6.876 67.37 6.865 L 68.726 6.787 C 69.002 6.771 69.205 7.05 69.119 7.324 C 68.562 9.078 68.014 10.835 67.473 12.595 C 67.36 12.963 67.754 13.269 68.064 13.057 C 68.599 12.69 69.218 12.446 69.816 12.412 C 71.343 12.324 72.382 13.585 72.482 15.485 C 72.487 15.584 72.493 15.693 72.496 15.803 C 72.499 16.009 72.655 16.181 72.859 16.2 C 73.577 16.264 74.312 16.05 74.878 15.542 C 74.936 15.489 74.977 15.419 74.996 15.342 C 75.558 13.151 76.179 10.975 76.8 8.797 C 77.013 8.051 77.226 7.305 77.436 6.557 C 77.48 6.393 77.622 6.276 77.79 6.264 L 79.145 6.186 C 79.422 6.171 79.626 6.449 79.539 6.723 C 78.983 8.478 78.434 10.235 77.893 11.994 C 77.781 12.363 78.173 12.669 78.484 12.457 C 79.018 12.089 79.637 11.846 80.237 11.811 C 81.763 11.724 82.801 12.985 82.902 14.884 C 82.907 14.985 82.913 15.092 82.915 15.202 C 82.919 15.409 83.074 15.58 83.278 15.6 C 83.987 15.669 84.693 15.45 85.242 14.991 C 85.304 14.937 85.348 14.865 85.368 14.785 C 86.008 12.307 86.949 9.061 87.856 5.954 C 87.901 5.792 88.042 5.677 88.208 5.666 L 89.551 5.588 C 89.824 5.573 90.028 5.846 89.946 6.118 C 88.699 10.278 87.681 13.917 87.12 16.064 C 86.374 18.976 86.345 19.816 87.193 19.767 C 87.905 19.726 88.864 18.712 89.768 17.179 C 89.804 17.119 89.824 17.051 89.826 16.981 C 89.945 13.912 91.818 11.121 94.603 10.961 C 96.469 10.854 97.491 12.268 97.565 13.66 C 97.704 16.318 95.087 18.017 92.551 17.86 C 92.411 17.853 92.278 17.922 92.2 18.04 C 92.122 18.158 92.111 18.308 92.171 18.437 C 92.525 19.197 93.271 19.621 94.545 19.548 C 95.756 19.479 97.026 18.43 97.826 17.494 Z M 55.904 18.239 C 55.303 20.661 56.033 21.609 56.979 21.555 C 58.53 21.465 60.031 18.611 59.916 16.408 C 59.865 15.446 59.304 14.946 58.65 14.983 C 57.56 15.046 56.386 16.306 55.904 18.239 Z M 66.324 17.64 C 65.723 20.061 66.453 21.01 67.398 20.955 L 67.397 20.955 C 68.949 20.866 70.45 18.012 70.335 15.809 C 70.285 14.847 69.723 14.347 69.069 14.384 C 67.979 14.447 66.806 15.707 66.324 17.64 Z M 76.744 17.041 C 76.142 19.462 76.873 20.411 77.818 20.356 L 77.817 20.356 C 79.368 20.267 80.871 17.413 80.755 15.21 C 80.704 14.248 80.143 13.747 79.489 13.785 C 78.399 13.848 77.226 15.108 76.744 17.041 Z M 95.583 13.875 C 95.574 13.24 95.186 12.781 94.556 12.816 L 94.555 12.816 C 93.317 12.888 92.349 14.233 92.041 15.865 C 91.992 16.125 92.181 16.366 92.433 16.36 C 94.032 16.32 95.635 15.261 95.583 13.875 Z M 37.555 15.053 C 37.394 10.135 34.209 6.89 29.503 7.06 C 27.482 7.152 25.17 7.921 23.43 9.297 C 23.266 9.429 23.225 9.664 23.335 9.845 L 24.073 11.051 C 24.132 11.149 24.229 11.215 24.34 11.234 C 24.451 11.252 24.565 11.22 24.651 11.147 C 25.974 10.042 27.781 9.318 29.52 9.241 C 32.746 9.107 35.116 11.181 35.254 15.185 C 35.426 19.848 32.305 25.182 27.288 25.471 C 27.114 25.48 26.931 25.485 26.748 25.485 C 26.492 25.485 26.304 25.234 26.368 24.974 C 27.364 20.938 28.447 16.924 29.617 12.935 C 29.696 12.663 29.493 12.392 29.221 12.407 L 27.754 12.492 C 27.588 12.503 27.446 12.619 27.401 12.781 C 26.294 16.627 25.187 20.797 24.19 24.711 C 24.165 24.818 24.096 24.909 24.002 24.963 C 23.907 25.017 23.794 25.028 23.691 24.994 C 23.171 24.816 22.697 24.614 22.292 24.377 C 22.199 24.323 22.087 24.311 21.985 24.345 C 21.882 24.378 21.798 24.453 21.753 24.552 L 21.123 25.874 C 21.029 26.068 21.098 26.304 21.282 26.415 C 22.71 27.228 24.879 27.693 27.058 27.568 C 34.232 27.156 37.746 20.504 37.555 15.055 L 37.555 15.054 Z M 51.652 9.011 C 50.779 9.061 50.005 10.046 50.06 11.084 C 50.095 11.768 50.533 12.224 51.212 12.186 C 52.084 12.136 52.88 11.1 52.828 10.112 C 52.792 9.428 52.282 8.975 51.652 9.011 Z" fill="rgb(255,255,255)"></path></svg>