<svg xmlns="http://www.w3.org/2000/svg" xmlns:xlink="http://www.w3.org/1999/xlink" viewBox="0 0 124 31"><path d="M 40.402 19.899 L 40.391 19.863 L 47.472 13.405 L 47.472 10.294 L 36.111 10.294 L 36.111 13.405 L 42.897 13.405 L 42.908 13.435 L 35.895 19.899 L 35.895 23.01 L 47.586 23.01 L 47.586 19.899 Z M 54.559 9.997 C 53.248 9.997 52.181 10.194 51.355 10.588 C 50.587 10.93 49.939 11.496 49.496 12.211 C 49.073 12.93 48.807 13.729 48.716 14.558 L 52.163 15.041 C 52.288 14.31 52.536 13.79 52.911 13.485 C 53.337 13.165 53.861 13.004 54.392 13.029 C 55.092 13.029 55.6 13.215 55.915 13.588 C 56.227 13.96 56.386 14.476 56.386 15.157 L 56.386 15.495 L 53.072 15.495 C 51.385 15.495 50.173 15.868 49.436 16.613 C 48.699 17.358 48.331 18.343 48.332 19.565 C 48.332 20.817 48.701 21.749 49.436 22.36 C 50.172 22.971 51.096 23.275 52.212 23.27 C 53.595 23.27 54.658 22.797 55.402 21.849 C 55.841 21.267 56.155 20.6 56.325 19.891 L 56.45 19.891 L 56.925 23.003 L 60.048 23.003 L 60.048 15.123 C 60.048 13.494 59.617 12.233 58.756 11.339 C 57.894 10.444 56.495 9.997 54.559 9.997 Z M 55.651 19.711 C 55.156 20.122 54.506 20.327 53.699 20.327 C 53.033 20.327 52.57 20.211 52.311 19.978 C 52.055 19.756 51.912 19.432 51.919 19.093 C 51.905 18.775 52.022 18.464 52.243 18.234 C 52.484 18.01 52.804 17.894 53.132 17.912 L 56.391 17.912 L 56.391 18.126 C 56.405 18.741 56.131 19.327 55.651 19.711 Z M 78.934 10.294 L 75.244 10.294 L 75.244 23.012 L 78.934 23.012 Z M 100.72 10.294 C 99.677 10.294 98.856 10.66 98.255 11.392 C 97.824 11.92 97.496 12.697 97.271 13.727 L 97.162 13.727 L 96.68 10.294 L 93.528 10.294 L 93.528 23.01 L 97.219 23.01 L 97.219 16.488 C 97.219 15.667 97.412 15.037 97.799 14.597 C 98.185 14.159 98.898 13.939 99.939 13.939 L 101.339 13.939 L 101.339 10.294 Z M 89.87 10.71 C 89.008 10.199 87.922 9.944 86.61 9.945 C 84.545 9.945 82.929 10.531 81.763 11.703 C 80.595 12.874 80.012 14.488 80.012 16.547 C 79.982 17.791 80.255 19.025 80.806 20.14 C 81.313 21.136 82.099 21.963 83.07 22.517 C 84.047 23.079 85.21 23.361 86.558 23.362 C 87.724 23.362 88.698 23.183 89.479 22.825 C 90.214 22.505 90.854 22.002 91.338 21.364 C 91.799 20.738 92.141 20.033 92.348 19.284 L 89.169 18.397 C 89.035 18.884 88.777 19.328 88.421 19.686 C 88.061 20.043 87.46 20.223 86.616 20.223 C 85.612 20.223 84.864 19.936 84.372 19.364 C 84.014 18.951 83.789 18.36 83.691 17.594 L 92.397 17.594 C 92.433 17.236 92.451 16.936 92.451 16.694 L 92.451 15.902 C 92.472 14.838 92.252 13.783 91.806 12.817 C 91.388 11.935 90.713 11.201 89.87 10.71 Z M 86.503 12.976 C 88 12.976 88.848 13.71 89.049 15.178 L 83.756 15.178 C 83.84 14.688 84.044 14.226 84.349 13.834 C 84.834 13.261 85.552 12.975 86.503 12.976 Z M 77.128 5.168 C 76.568 5.149 76.023 5.357 75.619 5.745 C 75.221 6.137 75.006 6.678 75.026 7.236 C 75.005 7.798 75.221 8.342 75.619 8.738 C 76.019 9.136 76.565 9.349 77.128 9.328 C 77.688 9.35 78.23 9.136 78.624 8.738 C 79.015 8.336 79.223 7.794 79.202 7.236 C 79.228 6.681 79.018 6.14 78.624 5.748 C 78.229 5.354 77.687 5.144 77.13 5.17 Z M 69.506 9.945 C 68.249 9.945 67.24 10.339 66.476 11.125 C 65.911 11.707 65.497 12.576 65.232 13.733 L 65.114 13.733 L 64.632 10.299 L 61.48 10.299 L 61.48 26.666 L 65.171 26.666 L 65.171 19.925 L 65.305 19.925 C 65.418 20.374 65.576 20.812 65.777 21.229 C 66.089 21.911 66.601 22.481 67.245 22.865 C 67.914 23.228 68.665 23.409 69.426 23.389 C 70.971 23.389 72.147 22.789 72.955 21.59 C 73.763 20.391 74.167 18.719 74.167 16.573 C 74.167 14.5 73.776 12.877 72.994 11.705 C 72.213 10.532 71.05 9.945 69.506 9.945 Z M 69.881 19.16 C 69.45 19.782 68.777 20.093 67.86 20.093 C 67.094 20.128 66.358 19.793 65.882 19.192 C 65.404 18.595 65.166 17.777 65.167 16.739 L 65.167 16.496 C 65.167 15.442 65.405 14.634 65.882 14.075 C 66.357 13.514 67.018 13.237 67.86 13.243 C 68.793 13.243 69.47 13.538 69.894 14.129 C 70.316 14.718 70.527 15.541 70.527 16.597 C 70.53 17.688 70.316 18.543 69.883 19.16 Z M 34.467 19.898 L 21.7 19.898 L 21.7 23.013 L 34.467 23.013 Z" fill="rgb(255,255,255)"></path></svg>