<svg xmlns="http://www.w3.org/2000/svg" xmlns:xlink="http://www.w3.org/1999/xlink" viewBox="0 0 120 30"><g transform="translate(21.81 1.009)" id="ss9881318047_1"><path d="M 57.931 14.256 L 57.931 20.439 L 60.463 20.439 L 60.463 14.635 C 60.463 12.05 63.979 12.045 63.979 12.045 L 63.979 9.529 C 63.979 9.529 62.996 9.573 62.219 9.747 C 60.017 10.244 57.931 11.332 57.931 14.256 Z M 38.847 9.405 C 39.833 9.405 41.065 9.964 41.736 10.946 C 42.43 10.053 43.573 9.45 44.984 9.427 C 46.777 9.404 48.994 10.52 48.994 13.87 L 48.994 20.433 L 46.463 20.433 L 46.463 13.869 C 46.463 12.753 45.656 11.95 44.448 11.95 C 43.239 11.95 42.433 12.753 42.433 13.869 L 42.433 20.431 L 39.901 20.431 L 39.901 13.869 C 39.901 12.753 39.094 11.95 37.886 11.95 C 36.676 11.95 35.847 12.753 35.847 13.869 L 35.847 20.431 L 33.185 20.431 L 33.185 9.736 L 35.847 9.736 L 35.847 10.811 C 36.565 9.941 37.617 9.404 38.849 9.404 L 38.847 9.404 Z M 54.817 9.873 L 54.817 20.44 L 52.242 20.44 L 52.242 9.873 Z M 53.529 8.192 C 54.323 8.192 54.966 7.551 54.966 6.76 C 54.966 5.97 54.322 5.33 53.529 5.33 C 52.736 5.33 52.092 5.97 52.092 6.76 C 52.092 7.551 52.735 8.192 53.529 8.192 Z M 70.854 9.382 C 67.737 9.382 65.21 11.898 65.21 15.001 C 65.21 18.105 67.737 20.621 70.854 20.621 C 73.971 20.621 76.498 18.105 76.498 15.001 C 76.498 11.898 73.971 9.382 70.854 9.382 Z M 70.854 18.095 C 69.09 18.095 67.659 16.67 67.659 14.913 C 67.659 13.156 69.09 11.732 70.854 11.732 C 72.62 11.732 74.05 13.156 74.05 14.913 C 74.05 16.67 72.62 18.095 70.854 18.095 Z" fill="rgb(255, 255, 255)"></path><path d="M 0 6.99 C 0 3.13 3.128 0 6.986 0 L 20.958 0 C 24.817 0 27.944 3.13 27.944 6.99 L 27.944 20.971 C 27.944 24.832 24.816 27.961 20.958 27.961 L 6.986 27.961 C 3.128 27.961 0 24.831 0 20.971 Z M 18.579 5.33 L 16.042 5.33 L 18.156 9.047 L 13.505 5.33 L 10.968 5.33 L 13.294 9.872 L 8.432 5.33 L 5.895 5.33 L 8.432 11.112 L 5.895 22.675 L 8.432 22.675 L 13.294 10.287 L 10.968 22.675 L 13.505 22.675 L 18.156 9.46 L 16.042 22.675 L 18.579 22.675 L 23.229 8.22 Z" fill="rgb(255, 255, 255)"></path></g></svg>